<svg width="24" height="24" viewBox="0 0 24 24" fill="none" xmlns="http://www.w3.org/2000/svg">
<path d="M0.6828 9.82852C0.6828 4.47302 4.89121 0.137085 10.0778 0.137085C15.2644 0.137085 19.4728 4.47302 19.4728 9.82852C19.4728 11.8207 18.8813 13.6605 17.8576 15.1722L22.7599 20.2465C23.1239 20.6215 23.3172 21.1254 23.3172 21.6644C23.3172 22.7894 22.4983 23.6683 21.3837 23.6683C20.8604 23.6683 20.36 23.4808 19.9846 23.0941L15.0369 17.9964C13.6151 18.9457 11.9204 19.5082 10.0778 19.5082C4.89121 19.5082 0.6828 15.1722 0.6828 9.82852ZM3.45808 9.82852C3.45808 13.5902 6.41534 16.6488 10.0778 16.6488C13.7402 16.6488 16.7089 13.5902 16.7089 9.82852C16.7089 6.05505 13.7402 2.99646 10.0778 2.99646C6.41534 2.99646 3.45808 6.05505 3.45808 9.82852Z" fill="white"/>
</svg>
